<mxfile host="app.diagrams.net" modified="2021-09-18T10:45:55.152Z" agent="5.0 (Windows NT 10.0; Win64; x64) AppleWebKit/537.36 (KHTML, like Gecko) Chrome/93.0.4577.82 Safari/537.36" etag="E1OTqHSlCnSaR_AEguHy" version="15.2.9" type="github">
  <diagram id="vk6w25_GvMUQRJ9LmNoW" name="Page-1">
    <mxGraphModel dx="1185" dy="635" grid="1" gridSize="10" guides="1" tooltips="1" connect="1" arrows="1" fold="1" page="1" pageScale="1" pageWidth="827" pageHeight="1169" math="0" shadow="0">
      <root>
        <mxCell id="0" />
        <mxCell id="1" parent="0" />
        <mxCell id="YmMr4SqD8na7WBz8dzxt-1" value="" style="rounded=0;whiteSpace=wrap;html=1;" vertex="1" parent="1">
          <mxGeometry x="180" y="180" width="120" height="60" as="geometry" />
        </mxCell>
        <mxCell id="YmMr4SqD8na7WBz8dzxt-2" value="" style="rounded=0;whiteSpace=wrap;html=1;" vertex="1" parent="1">
          <mxGeometry x="660" y="180" width="120" height="60" as="geometry" />
        </mxCell>
        <mxCell id="YmMr4SqD8na7WBz8dzxt-3" value="" style="rounded=0;whiteSpace=wrap;html=1;" vertex="1" parent="1">
          <mxGeometry x="500" y="180" width="120" height="60" as="geometry" />
        </mxCell>
        <mxCell id="YmMr4SqD8na7WBz8dzxt-4" value="" style="rounded=0;whiteSpace=wrap;html=1;" vertex="1" parent="1">
          <mxGeometry x="340" y="180" width="120" height="60" as="geometry" />
        </mxCell>
        <mxCell id="YmMr4SqD8na7WBz8dzxt-5" value="" style="shape=flexArrow;endArrow=classic;html=1;fillColor=#f8cecc;strokeColor=#b85450;" edge="1" parent="1">
          <mxGeometry width="50" height="50" relative="1" as="geometry">
            <mxPoint x="720" y="330" as="sourcePoint" />
            <mxPoint x="720" y="260" as="targetPoint" />
          </mxGeometry>
        </mxCell>
        <mxCell id="YmMr4SqD8na7WBz8dzxt-6" value="" style="shape=flexArrow;endArrow=classic;html=1;fillColor=#d5e8d4;strokeColor=#82b366;" edge="1" parent="1">
          <mxGeometry width="50" height="50" relative="1" as="geometry">
            <mxPoint x="840" y="330" as="sourcePoint" />
            <mxPoint x="840" y="260" as="targetPoint" />
          </mxGeometry>
        </mxCell>
        <mxCell id="YmMr4SqD8na7WBz8dzxt-7" value="" style="endArrow=classic;html=1;exitX=1;exitY=0.5;exitDx=0;exitDy=0;entryX=0;entryY=0.5;entryDx=0;entryDy=0;" edge="1" parent="1" source="YmMr4SqD8na7WBz8dzxt-1" target="YmMr4SqD8na7WBz8dzxt-4">
          <mxGeometry width="50" height="50" relative="1" as="geometry">
            <mxPoint x="530" y="420" as="sourcePoint" />
            <mxPoint x="580" y="370" as="targetPoint" />
          </mxGeometry>
        </mxCell>
        <mxCell id="YmMr4SqD8na7WBz8dzxt-8" value="" style="endArrow=classic;html=1;exitX=1;exitY=0.5;exitDx=0;exitDy=0;entryX=0;entryY=0.5;entryDx=0;entryDy=0;" edge="1" parent="1">
          <mxGeometry width="50" height="50" relative="1" as="geometry">
            <mxPoint x="620" y="209.5" as="sourcePoint" />
            <mxPoint x="660" y="209.5" as="targetPoint" />
          </mxGeometry>
        </mxCell>
        <mxCell id="YmMr4SqD8na7WBz8dzxt-9" value="" style="endArrow=classic;html=1;exitX=1;exitY=0.5;exitDx=0;exitDy=0;entryX=0;entryY=0.5;entryDx=0;entryDy=0;" edge="1" parent="1">
          <mxGeometry width="50" height="50" relative="1" as="geometry">
            <mxPoint x="460" y="209.5" as="sourcePoint" />
            <mxPoint x="500" y="209.5" as="targetPoint" />
          </mxGeometry>
        </mxCell>
        <mxCell id="YmMr4SqD8na7WBz8dzxt-10" value="head/ 1" style="rhombus;whiteSpace=wrap;html=1;" vertex="1" parent="1">
          <mxGeometry x="150" y="30" width="80" height="80" as="geometry" />
        </mxCell>
        <mxCell id="YmMr4SqD8na7WBz8dzxt-11" value="" style="rounded=0;whiteSpace=wrap;html=1;" vertex="1" parent="1">
          <mxGeometry x="180" y="400" width="120" height="60" as="geometry" />
        </mxCell>
        <mxCell id="YmMr4SqD8na7WBz8dzxt-12" value="" style="rounded=0;whiteSpace=wrap;html=1;" vertex="1" parent="1">
          <mxGeometry x="500" y="400" width="120" height="60" as="geometry" />
        </mxCell>
        <mxCell id="YmMr4SqD8na7WBz8dzxt-13" value="" style="rounded=0;whiteSpace=wrap;html=1;" vertex="1" parent="1">
          <mxGeometry x="340" y="400" width="120" height="60" as="geometry" />
        </mxCell>
        <mxCell id="YmMr4SqD8na7WBz8dzxt-14" value="" style="endArrow=classic;html=1;exitX=1;exitY=0.5;exitDx=0;exitDy=0;entryX=0;entryY=0.5;entryDx=0;entryDy=0;" edge="1" source="YmMr4SqD8na7WBz8dzxt-11" target="YmMr4SqD8na7WBz8dzxt-13" parent="1">
          <mxGeometry width="50" height="50" relative="1" as="geometry">
            <mxPoint x="530" y="640" as="sourcePoint" />
            <mxPoint x="580" y="590" as="targetPoint" />
          </mxGeometry>
        </mxCell>
        <mxCell id="YmMr4SqD8na7WBz8dzxt-15" value="" style="endArrow=classic;html=1;exitX=1;exitY=0.5;exitDx=0;exitDy=0;entryX=0;entryY=0.5;entryDx=0;entryDy=0;" edge="1" parent="1">
          <mxGeometry width="50" height="50" relative="1" as="geometry">
            <mxPoint x="460" y="429.5" as="sourcePoint" />
            <mxPoint x="500" y="429.5" as="targetPoint" />
          </mxGeometry>
        </mxCell>
        <mxCell id="YmMr4SqD8na7WBz8dzxt-16" value="" style="shape=flexArrow;endArrow=classic;html=1;fillColor=#f8cecc;strokeColor=#b85450;" edge="1" parent="1">
          <mxGeometry width="50" height="50" relative="1" as="geometry">
            <mxPoint x="220" y="560" as="sourcePoint" />
            <mxPoint x="220" y="490" as="targetPoint" />
          </mxGeometry>
        </mxCell>
        <mxCell id="YmMr4SqD8na7WBz8dzxt-17" value="" style="shape=flexArrow;endArrow=classic;html=1;fillColor=#d5e8d4;strokeColor=#82b366;" edge="1" parent="1">
          <mxGeometry width="50" height="50" relative="1" as="geometry">
            <mxPoint x="680" y="560" as="sourcePoint" />
            <mxPoint x="680" y="490" as="targetPoint" />
          </mxGeometry>
        </mxCell>
        <mxCell id="YmMr4SqD8na7WBz8dzxt-18" value="head/ 3" style="rhombus;whiteSpace=wrap;html=1;" vertex="1" parent="1">
          <mxGeometry x="70" y="380" width="80" height="80" as="geometry" />
        </mxCell>
        <mxCell id="YmMr4SqD8na7WBz8dzxt-19" value="1" style="rounded=0;whiteSpace=wrap;html=1;" vertex="1" parent="1">
          <mxGeometry x="169.5" y="670" width="120" height="60" as="geometry" />
        </mxCell>
        <mxCell id="YmMr4SqD8na7WBz8dzxt-21" value="2" style="rounded=0;whiteSpace=wrap;html=1;" vertex="1" parent="1">
          <mxGeometry x="329.5" y="670" width="120" height="60" as="geometry" />
        </mxCell>
        <mxCell id="YmMr4SqD8na7WBz8dzxt-22" value="" style="endArrow=classic;html=1;exitX=1;exitY=0.5;exitDx=0;exitDy=0;entryX=0;entryY=0.5;entryDx=0;entryDy=0;" edge="1" source="YmMr4SqD8na7WBz8dzxt-19" target="YmMr4SqD8na7WBz8dzxt-21" parent="1">
          <mxGeometry width="50" height="50" relative="1" as="geometry">
            <mxPoint x="519.5" y="910" as="sourcePoint" />
            <mxPoint x="569.5" y="860" as="targetPoint" />
          </mxGeometry>
        </mxCell>
        <mxCell id="YmMr4SqD8na7WBz8dzxt-24" value="" style="shape=flexArrow;endArrow=classic;html=1;fillColor=#f8cecc;strokeColor=#b85450;" edge="1" parent="1">
          <mxGeometry width="50" height="50" relative="1" as="geometry">
            <mxPoint x="230" y="830" as="sourcePoint" />
            <mxPoint x="230" y="760" as="targetPoint" />
          </mxGeometry>
        </mxCell>
        <mxCell id="YmMr4SqD8na7WBz8dzxt-25" value="" style="shape=flexArrow;endArrow=classic;html=1;fillColor=#d5e8d4;strokeColor=#82b366;" edge="1" parent="1">
          <mxGeometry width="50" height="50" relative="1" as="geometry">
            <mxPoint x="520" y="830" as="sourcePoint" />
            <mxPoint x="520" y="760" as="targetPoint" />
          </mxGeometry>
        </mxCell>
        <mxCell id="YmMr4SqD8na7WBz8dzxt-26" value="head/ 2" style="rhombus;whiteSpace=wrap;html=1;" vertex="1" parent="1">
          <mxGeometry x="129.5" y="570" width="80" height="80" as="geometry" />
        </mxCell>
        <mxCell id="YmMr4SqD8na7WBz8dzxt-27" value="" style="rounded=0;whiteSpace=wrap;html=1;" vertex="1" parent="1">
          <mxGeometry x="169.5" y="950" width="120" height="60" as="geometry" />
        </mxCell>
        <mxCell id="YmMr4SqD8na7WBz8dzxt-30" value="" style="shape=flexArrow;endArrow=classic;html=1;fillColor=#f8cecc;strokeColor=#b85450;" edge="1" parent="1">
          <mxGeometry width="50" height="50" relative="1" as="geometry">
            <mxPoint x="220" y="1100" as="sourcePoint" />
            <mxPoint x="220" y="1030" as="targetPoint" />
          </mxGeometry>
        </mxCell>
        <mxCell id="YmMr4SqD8na7WBz8dzxt-31" value="" style="shape=flexArrow;endArrow=classic;html=1;fillColor=#d5e8d4;strokeColor=#82b366;" edge="1" parent="1">
          <mxGeometry width="50" height="50" relative="1" as="geometry">
            <mxPoint x="260" y="1100" as="sourcePoint" />
            <mxPoint x="260" y="1030" as="targetPoint" />
          </mxGeometry>
        </mxCell>
        <mxCell id="YmMr4SqD8na7WBz8dzxt-32" value="head/ 1" style="rhombus;whiteSpace=wrap;html=1;" vertex="1" parent="1">
          <mxGeometry x="129.5" y="850" width="80" height="80" as="geometry" />
        </mxCell>
        <mxCell id="YmMr4SqD8na7WBz8dzxt-33" value="1" style="rounded=0;whiteSpace=wrap;html=1;" vertex="1" parent="1">
          <mxGeometry x="1020" y="180" width="120" height="60" as="geometry" />
        </mxCell>
        <mxCell id="YmMr4SqD8na7WBz8dzxt-34" value="4" style="rounded=0;whiteSpace=wrap;html=1;" vertex="1" parent="1">
          <mxGeometry x="1500" y="180" width="120" height="60" as="geometry" />
        </mxCell>
        <mxCell id="YmMr4SqD8na7WBz8dzxt-35" value="3" style="rounded=0;whiteSpace=wrap;html=1;" vertex="1" parent="1">
          <mxGeometry x="1340" y="180" width="120" height="60" as="geometry" />
        </mxCell>
        <mxCell id="YmMr4SqD8na7WBz8dzxt-36" value="2" style="rounded=0;whiteSpace=wrap;html=1;" vertex="1" parent="1">
          <mxGeometry x="1180" y="180" width="120" height="60" as="geometry" />
        </mxCell>
        <mxCell id="YmMr4SqD8na7WBz8dzxt-39" value="" style="endArrow=classic;html=1;exitX=1;exitY=0.5;exitDx=0;exitDy=0;entryX=0;entryY=0.5;entryDx=0;entryDy=0;" edge="1" source="YmMr4SqD8na7WBz8dzxt-33" target="YmMr4SqD8na7WBz8dzxt-36" parent="1">
          <mxGeometry width="50" height="50" relative="1" as="geometry">
            <mxPoint x="1370" y="420" as="sourcePoint" />
            <mxPoint x="1420" y="370" as="targetPoint" />
          </mxGeometry>
        </mxCell>
        <mxCell id="YmMr4SqD8na7WBz8dzxt-40" value="" style="endArrow=classic;html=1;exitX=1;exitY=0.5;exitDx=0;exitDy=0;entryX=0;entryY=0.5;entryDx=0;entryDy=0;" edge="1" parent="1">
          <mxGeometry width="50" height="50" relative="1" as="geometry">
            <mxPoint x="1460" y="209.5" as="sourcePoint" />
            <mxPoint x="1500" y="209.5" as="targetPoint" />
          </mxGeometry>
        </mxCell>
        <mxCell id="YmMr4SqD8na7WBz8dzxt-41" value="" style="endArrow=classic;html=1;exitX=1;exitY=0.5;exitDx=0;exitDy=0;entryX=0;entryY=0.5;entryDx=0;entryDy=0;" edge="1" parent="1">
          <mxGeometry width="50" height="50" relative="1" as="geometry">
            <mxPoint x="1300" y="209.5" as="sourcePoint" />
            <mxPoint x="1340" y="209.5" as="targetPoint" />
          </mxGeometry>
        </mxCell>
        <mxCell id="YmMr4SqD8na7WBz8dzxt-42" value="head/ 2" style="rhombus;whiteSpace=wrap;html=1;" vertex="1" parent="1">
          <mxGeometry x="990" y="30" width="80" height="80" as="geometry" />
        </mxCell>
        <mxCell id="YmMr4SqD8na7WBz8dzxt-52" value="" style="shape=flexArrow;endArrow=classic;html=1;fillColor=#f8cecc;strokeColor=#b85450;" edge="1" parent="1">
          <mxGeometry width="50" height="50" relative="1" as="geometry">
            <mxPoint x="1399.58" y="350" as="sourcePoint" />
            <mxPoint x="1399.58" y="280" as="targetPoint" />
          </mxGeometry>
        </mxCell>
        <mxCell id="YmMr4SqD8na7WBz8dzxt-53" value="" style="shape=flexArrow;endArrow=classic;html=1;fillColor=#d5e8d4;strokeColor=#82b366;" edge="1" parent="1">
          <mxGeometry width="50" height="50" relative="1" as="geometry">
            <mxPoint x="1840" y="340" as="sourcePoint" />
            <mxPoint x="1840" y="270" as="targetPoint" />
          </mxGeometry>
        </mxCell>
        <mxCell id="YmMr4SqD8na7WBz8dzxt-54" value="5" style="rounded=0;whiteSpace=wrap;html=1;" vertex="1" parent="1">
          <mxGeometry x="1660" y="180" width="120" height="60" as="geometry" />
        </mxCell>
        <mxCell id="YmMr4SqD8na7WBz8dzxt-55" value="" style="endArrow=classic;html=1;exitX=1;exitY=0.5;exitDx=0;exitDy=0;entryX=0;entryY=0.5;entryDx=0;entryDy=0;" edge="1" parent="1">
          <mxGeometry width="50" height="50" relative="1" as="geometry">
            <mxPoint x="1620" y="209.5" as="sourcePoint" />
            <mxPoint x="1660" y="209.5" as="targetPoint" />
          </mxGeometry>
        </mxCell>
      </root>
    </mxGraphModel>
  </diagram>
</mxfile>
